<?xml version="1.0" encoding="utf-8"?>
<!-- Generator: Adobe Illustrator 23.0.6, SVG Export Plug-In . SVG Version: 6.00 Build 0)  -->
<svg version="1.1" id="Capa_1" xmlns="http://www.w3.org/2000/svg" xmlns:xlink="http://www.w3.org/1999/xlink" x="0px" y="0px"
	 viewBox="0 0 509.5 509.5" style="enable-background:new 0 0 509.5 509.5;" xml:space="preserve">
<style type="text/css">
	.st0{fill:#FFFFFF;}
</style>
<g>
	<g>
		<rect x="255.5" y="236.5" class="st0" width="113.2" height="59.9"/>
		<polygon class="st0" points="224.9,135.5 132.7,135.5 139.6,205.9 224.9,205.9 		"/>
		<polygon class="st0" points="224.9,296.4 224.9,236.5 142.6,236.5 148.4,296.4 		"/>
		<polygon class="st0" points="224.9,45 123.9,45 129.8,104.9 224.9,104.9 		"/>
		<polygon class="st0" points="399.3,296.4 460.5,296.4 472.2,236.5 399.3,236.5 		"/>
		<rect x="255.5" y="45" class="st0" width="113.2" height="59.9"/>
		<rect x="255.5" y="135.5" class="st0" width="113.2" height="70.4"/>
		<polygon class="st0" points="399.3,104.9 497.8,104.9 509.5,45 399.3,45 		"/>
		<polygon class="st0" points="399.3,205.9 478.2,205.9 491.9,135.5 399.3,135.5 		"/>
		<polygon class="st0" points="92.1,29.7 0,29.7 0,60.3 63.9,60.3 88.4,357.6 460.5,357.6 460.5,327 116.6,327 		"/>
		<circle class="st0" cx="136.9" cy="433.1" r="46.7"/>
		<circle class="st0" cx="404.7" cy="433.1" r="46.7"/>
	</g>
</g>
</svg>
